<?xml version="1.0" encoding="UTF-8"?>
<svg width="400px" height="400px" viewBox="0 0 400 400" version="1.1" xmlns="http://www.w3.org/2000/svg" xmlns:xlink="http://www.w3.org/1999/xlink">
    <title>购物车空空</title>
    <defs>
        <linearGradient x1="50%" y1="0%" x2="50%" y2="98.4770904%" id="linearGradient-1">
            <stop stop-color="#FFE5CE" offset="0%"></stop>
            <stop stop-color="#FFFFFF" offset="100%"></stop>
        </linearGradient>
        <circle id="path-2" cx="148" cy="148" r="148"></circle>
        <linearGradient x1="30.2872571%" y1="5.5545202%" x2="83.0179524%" y2="111.695862%" id="linearGradient-4">
            <stop stop-color="#FFA85D" offset="0%"></stop>
            <stop stop-color="#FFFFFF" stop-opacity="0" offset="100%"></stop>
        </linearGradient>
        <linearGradient x1="30.2872571%" y1="5.5545202%" x2="83.0179524%" y2="111.695862%" id="linearGradient-5">
            <stop stop-color="#FF7600" offset="0%"></stop>
            <stop stop-color="#FFFFFF" stop-opacity="0" offset="100%"></stop>
        </linearGradient>
        <linearGradient x1="10.7465775%" y1="21.6199516%" x2="50%" y2="100%" id="linearGradient-6">
            <stop stop-color="#FF7600" offset="0%"></stop>
            <stop stop-color="#FFCB9F" offset="100%"></stop>
        </linearGradient>
        <linearGradient x1="50%" y1="0.372149493%" x2="50%" y2="100%" id="linearGradient-7">
            <stop stop-color="#FFCEA3" offset="0%"></stop>
            <stop stop-color="#FFFFFF" offset="100%"></stop>
        </linearGradient>
        <linearGradient x1="50%" y1="1.45692568%" x2="50%" y2="100%" id="linearGradient-8">
            <stop stop-color="#FFE5CF" offset="0%"></stop>
            <stop stop-color="#FFF0E3" offset="100%"></stop>
        </linearGradient>
        <linearGradient x1="50%" y1="0%" x2="50%" y2="99.6991132%" id="linearGradient-9">
            <stop stop-color="#FFC694" offset="0%"></stop>
            <stop stop-color="#FFFFFF" offset="100%"></stop>
        </linearGradient>
        <linearGradient x1="50%" y1="0%" x2="50%" y2="100%" id="linearGradient-10">
            <stop stop-color="#FFF8F8" offset="0%"></stop>
            <stop stop-color="#FFFFFF" offset="100%"></stop>
        </linearGradient>
        <linearGradient x1="54.7044121%" y1="2.87158716%" x2="54.7044121%" y2="104.313225%" id="linearGradient-11">
            <stop stop-color="#FFB574" offset="0%"></stop>
            <stop stop-color="#FF7600" offset="100%"></stop>
        </linearGradient>
        <linearGradient x1="0%" y1="50%" x2="100%" y2="50%" id="linearGradient-12">
            <stop stop-color="#FF7600" offset="0%"></stop>
            <stop stop-color="#FF7600" stop-opacity="0.5" offset="100%"></stop>
        </linearGradient>
        <linearGradient x1="-9.45957363%" y1="50%" x2="100%" y2="50%" id="linearGradient-13">
            <stop stop-color="#FF7600" offset="0%"></stop>
            <stop stop-color="#FF7600" stop-opacity="0.5" offset="100%"></stop>
        </linearGradient>
        <linearGradient x1="54.6746847%" y1="22.7367139%" x2="54.6746847%" y2="100%" id="linearGradient-14">
            <stop stop-color="#FFAE67" offset="0%"></stop>
            <stop stop-color="#FF7600" offset="100%"></stop>
        </linearGradient>
    </defs>
    <g id="购物车空空" stroke="none" stroke-width="1" fill="none" fill-rule="evenodd">
        <g id="路径-2" transform="translate(52.000000, 52.000000)">
            <mask id="mask-3" fill="white">
                <use xlink:href="#path-2"></use>
            </mask>
            <use id="蒙版" fill="url(#linearGradient-1)" xlink:href="#path-2"></use>
            <circle id="椭圆形" fill="url(#linearGradient-4)" opacity="0.300000012" mask="url(#mask-3)" cx="29.5" cy="157.5" r="43.5"></circle>
            <circle id="椭圆形备份-5" fill="url(#linearGradient-5)" opacity="0.200000003" mask="url(#mask-3)" cx="264" cy="242" r="25"></circle>
            <circle id="椭圆形" fill="url(#linearGradient-6)" opacity="0.100000001" mask="url(#mask-3)" cx="229" cy="61" r="69"></circle>
            <path d="M27.7138746,101.242956 L41.7138746,92.0786413 C44.4863979,90.2637644 48.2052206,91.0400901 50.0200976,93.8126135 C50.6594556,94.7893382 51,95.9313616 51,97.0987389 L51,300 C51,303.313708 48.3137085,306 45,306 L31,306 C27.6862915,306 25,303.313708 25,300 L25,106.263054 C25,104.239059 26.0204326,102.351473 27.7138746,101.242956 Z" id="矩形备份-4" fill="url(#linearGradient-7)" mask="url(#mask-3)"></path>
            <rect id="矩形" fill="#FFFFFF" mask="url(#mask-3)" x="40" y="91" width="148" height="220" rx="6"></rect>
            <rect id="矩形" fill="url(#linearGradient-8)" mask="url(#mask-3)" x="47" y="99" width="134" height="53"></rect>
            <rect id="矩形备份" fill="url(#linearGradient-8)" mask="url(#mask-3)" x="47" y="158" width="134" height="53"></rect>
            <rect id="矩形备份-2" fill="url(#linearGradient-8)" mask="url(#mask-3)" x="47" y="217" width="134" height="53"></rect>
            <rect id="矩形备份-5" fill="url(#linearGradient-8)" mask="url(#mask-3)" x="47" y="276" width="134" height="53"></rect>
            <rect id="矩形" fill="url(#linearGradient-9)" style="mix-blend-mode: multiply;" mask="url(#mask-3)" x="160" y="99" width="21" height="204"></rect>
            <rect id="矩形" fill="#FFFFFF" mask="url(#mask-3)" x="47" y="152" width="134" height="6"></rect>
            <rect id="矩形" fill="url(#linearGradient-10)" mask="url(#mask-3)" x="63" y="131" width="15" height="22" rx="1"></rect>
            <rect id="矩形备份-10" fill="url(#linearGradient-10)" mask="url(#mask-3)" x="76" y="190" width="15" height="22" rx="1"></rect>
            <rect id="矩形备份-14" fill="url(#linearGradient-10)" mask="url(#mask-3)" x="61" y="249" width="15" height="22" rx="1"></rect>
            <rect id="矩形备份-7" fill="url(#linearGradient-10)" mask="url(#mask-3)" x="88" y="131" width="15" height="22" rx="1"></rect>
            <rect id="矩形备份-11" fill="url(#linearGradient-10)" mask="url(#mask-3)" x="101" y="190" width="15" height="22" rx="1"></rect>
            <rect id="矩形备份-15" fill="url(#linearGradient-10)" mask="url(#mask-3)" x="86" y="249" width="15" height="22" rx="1"></rect>
            <rect id="矩形备份-8" fill="url(#linearGradient-10)" mask="url(#mask-3)" x="113" y="131" width="15" height="22" rx="1"></rect>
            <rect id="矩形备份-12" fill="url(#linearGradient-10)" mask="url(#mask-3)" x="126" y="190" width="15" height="22" rx="1"></rect>
            <rect id="矩形备份-16" fill="url(#linearGradient-10)" mask="url(#mask-3)" x="111" y="249" width="15" height="22" rx="1"></rect>
            <rect id="矩形备份-9" fill="url(#linearGradient-10)" mask="url(#mask-3)" x="138" y="131" width="15" height="22" rx="1"></rect>
            <rect id="矩形备份-13" fill="url(#linearGradient-10)" mask="url(#mask-3)" x="151" y="190" width="15" height="22" rx="1"></rect>
            <g id="编组" mask="url(#mask-3)">
                <g transform="translate(140.000000, 205.000000)"></g>
            </g>
            <rect id="矩形备份-17" fill="url(#linearGradient-10)" mask="url(#mask-3)" x="136" y="249" width="15" height="22" rx="1"></rect>
            <g id="编组-2" mask="url(#mask-3)">
                <g transform="translate(47.000000, 182.000000)">
                    <rect id="矩形备份-3" stroke="none" fill="#FFFFFF" fill-rule="evenodd" x="0" y="29" width="134" height="6"></rect>
                    <rect id="矩形备份-6" stroke="none" fill="#FFFFFF" fill-rule="evenodd" x="0" y="88" width="134" height="6"></rect>
                    <path d="M119,23 L119,38 L134,38 L134,23 L141,23 L141,38 L156,38 L156,23 L163,23 L163,38 L181,38 L181,45 L162.999,45 L162.999,59 L181,59 L181,66 L162.999,66 L163,82 L156,82 L155.999,66 L140.999,66 L141,82 L134,82 L134,66 L118.999,66 L119,82 L112,82 L111.999,66 L93,66 L93,59 L111.999,59 L111.999,45 L93,45 L93,38 L112,38 L112,23 L119,23 Z M134,45 L118.999,45 L118.999,59 L134,59 L134,45 Z M155.999,45 L140.999,45 L140.999,59 L155.999,59 L155.999,45 Z" id="形状" stroke="none" fill="url(#linearGradient-11)" fill-rule="nonzero"></path>
                    <path d="M114.5,97 L157.5,97 C159.432997,97 161,98.5670034 161,100.5 C161,102.432997 159.432997,104 157.5,104 L114.5,104 C112.567003,104 111,102.432997 111,100.5 C111,98.5670034 112.567003,97 114.5,97 Z" id="矩形" stroke="none" fill="url(#linearGradient-12)" fill-rule="nonzero"></path>
                    <path d="M164.363102,85.6622817 L165.916017,91.4578366 C166.416313,93.324968 165.308274,95.2441474 163.441143,95.7444437 C161.574011,96.24474 159.654832,95.1367013 159.154536,93.26957 L157.601622,87.474015 C157.101325,85.6068836 158.209364,83.6877043 160.076495,83.187408 C161.943627,82.6871116 163.862806,83.7951503 164.363102,85.6622817 Z" id="矩形备份-23" stroke="none" fill="url(#linearGradient-13)" fill-rule="nonzero"></path>
                    <path d="M106.5,107 C110.089625,107 113,104.089625 113,100.5 C113,96.910375 110.089625,94 106.5,94 C102.910375,94 100,96.910375 100,100.5 C100,104.089625 102.910375,107 106.5,107 Z" id="路径" stroke="#FFA559" stroke-width="5" fill="none" fill-rule="nonzero"></path>
                    <path d="M165.5,107 C169.089625,107 172,104.089625 172,100.5 C172,96.910375 169.089625,94 165.5,94 C161.910375,94 159,96.910375 159,100.5 C159,104.089625 161.910375,107 165.5,107 Z" id="路径备份" stroke="#FFA559" stroke-width="5" fill="none" fill-rule="nonzero"></path>
                    <path d="M204.003882,6.02620087 C205.074292,6.0262009 206.063391,5.4519072 206.598596,4.51965067 C207.133801,3.58739414 207.133801,2.43880673 206.598596,1.5065502 C206.063391,0.574293671 205.074292,0 204.003882,0 L194.491208,0 C187.935412,0 182.408728,4.91636778 181.606904,11.4598253 L173.267709,79.4675109 C173.206191,79.9708303 172.781242,80.3490762 172.276993,80.349345 L99.7629545,80.349345 C99.2500538,80.3493515 98.8205322,79.9586373 98.7692421,79.4454148 L94.0203956,32.1156332 C93.8873577,30.790405 94.283283,29.4663102 95.1210612,28.4346715 C95.9029875,27.4718087 97.010027,26.8373327 98.2255552,26.6483508 L98.497997,26.6143853 L98.497997,26.6143853 L169.461641,26.589607 L169.461641,26.589607 C171.116351,26.589607 172.457759,25.240596 172.457759,23.5765066 C172.457759,21.9124171 171.116351,20.5634061 169.461641,20.5634061 L98.9889574,20.5634061 C91.580557,20.5634061 87.4499094,26.649869 88.05912,32.720262 L92.8069679,80.051048 C93.1674329,83.6424116 96.1736866,86.3755459 99.7629545,86.3755459 L172.275994,86.3755459 C175.806251,86.3755459 178.782799,83.7292804 179.215003,80.2057205 L187.553199,12.1960262 C187.98531,8.67322614 190.960714,6.02688101 194.49021,6.02620087 L204.003882,6.02620087 Z" id="路径" stroke="none" fill="url(#linearGradient-14)" fill-rule="nonzero"></path>
                </g>
            </g>
        </g>
    </g>
</svg>